# xmcd
#
# Track frame offsets: 
#        150
#        24322
#        47182
#        67977
#        97740
#        130730
#        149195
#        169437
#        189137
#        220777
#        248720
#        268832
#
# Disc length: 3819 seconds
#
# Revision: 3
# Processed by: cddbd v1.5.2PL0 Copyright (c) Steve Scherf et al.
# Submitted via: ExactAudioCopyFreeDBPlugin 1.0
#
DISCID=ab0ee90c
DTITLE=Little Axe - The Wolf That House Built
DYEAR=1994
DGENRE=Rock
TTITLE0=Ride On (Fight On)
TTITLE1=The Time Has Come
TTITLE2=Out In The Rain And Cold
TTITLE3=Back to the Crossroads
TTITLE4=Never Turn Back Part 1 and 2
TTITLE5=Another Sinful Day
TTITLE6=Crossfire
TTITLE7=Wolf's Story
TTITLE8=Hear My Cry
TTITLE9=Dayton
TTITLE10=Falling Down
TTITLE11=Wake the Town
EXTD=YEAR: 1994
EXTT0=
EXTT1=
EXTT2=
EXTT3=
EXTT4=
EXTT5=
EXTT6=
EXTT7=
EXTT8=
EXTT9=
EXTT10=
EXTT11=
PLAYORDER=
